<svg class="svgicon hidden" id="svg10" preserveAspectRatio="xMidYMid meet" xmlns="http://www.w3.org/2000/svg"  >
  <!--<rect x="0" y="0" width="128" height="128" style="fill: transparent" rx="50%" ry="50%"></rect>-->
  <symbol id="first" viewBox="0 0 128 128">
    <path class="st0" d="M99.748,86.484c0.875,0,1.707-0.383,2.277-1.047l24-27.98c1.078-1.258,0.934-3.151-0.324-4.23 c-1.258-1.078-3.152-0.934-4.23,0.324L98.369,80.484H65v-7.858h34.748c0.875,0,1.707-0.383,2.277-1.047l24-27.98 c1.078-1.257,0.934-3.151-0.324-4.229c-1.258-1.079-3.152-0.935-4.23,0.323L98.369,66.625H65v-5.909h30.748 c0.875,0,1.707-0.383,2.277-1.047l24-27.979c0.762-0.89,0.938-2.142,0.447-3.206c-0.488-1.065-1.553-1.747-2.725-1.747H87.594 c0.488-0.844,0.543-1.883,0.117-2.782c-0.494-1.049-1.551-1.718-2.711-1.718H53.709c-0.898,0-1.748,0.401-2.318,1.096l-2.797,3.404 H28.252c-0.875,0-1.707,0.382-2.277,1.047l-24,27.979c-0.764,0.89-0.938,2.142-0.449,3.206c0.49,1.064,1.555,1.747,2.727,1.747 h23.457v5.833H4.252c-1.658,0-3,1.343-3,3s1.342,3,3,3h23.457v7.935H4.252c-1.658,0-3,1.343-3,3s1.342,3,3,3h23.457v6.72H4.252 c-1.658,0-3,1.343-3,3s1.342,3,3,3h23.457v3.56c0,1.657,1.342,3,3,3H62c1.656,0,3-1.343,3-3v-3.56h34.748 c0.875,0,1.707-0.383,2.277-1.047l24-27.979c1.078-1.258,0.934-3.151-0.324-4.23c-1.258-1.078-3.152-0.934-4.23,0.324 L98.369,93.204H65v-6.72H99.748z M46.674,83.846v3.069h-1.859v-2.98c-1.711-0.029-3.482-0.561-4.516-1.299l0.709-1.977 c1.062,0.707,2.598,1.269,4.25,1.269c2.094,0,3.512-1.21,3.512-2.892c0-1.623-1.152-2.627-3.336-3.512 c-3.01-1.182-4.869-2.539-4.869-5.105c0-2.449,1.742-4.309,4.457-4.752v-2.98h1.83v2.863c1.77,0.059,2.98,0.531,3.836,1.032 l-0.738,1.948c-0.619-0.354-1.83-1.004-3.719-1.004c-2.271,0-3.127,1.357-3.127,2.538c0,1.534,1.092,2.302,3.658,3.364 c3.041,1.239,4.574,2.773,4.574,5.4C51.336,81.161,49.713,83.345,46.674,83.846z"></path>
  </symbol>
  <symbol id="second" viewBox="0 0 128 128">
    <path d="M117.65,84.868H88.562v-33.95c0-1.803-1.463-3.266-3.265-3.266H44.266c-1.804,0-3.265,1.462-3.265,3.266v23.071 c-0.305-0.094-0.622-0.159-0.956-0.159H10.35c-1.803,0-3.266,1.462-3.266,3.266v37.841c0,1.803,1.463,3.265,3.266,3.265h29.695 c0.334,0,0.651-0.065,0.956-0.159v0.159h28.033h19.527h29.089c1.801,0,3.266-1.461,3.266-3.265V88.132 C120.916,86.33,119.451,84.868,117.65,84.868z M31.845,104.553c-0.289,0.307-0.737,0.459-1.334,0.459h-9.965 c-0.677,0-1.206-0.188-1.583-0.562c-0.381-0.375-0.57-0.813-0.57-1.319c0-0.326,0.122-0.756,0.365-1.293 c0.243-0.538,0.51-0.96,0.8-1.266c1.2-1.246,2.283-2.314,3.248-3.203c0.969-0.889,1.658-1.473,2.071-1.754 c0.742-0.522,1.359-1.05,1.85-1.577c0.494-0.528,0.867-1.07,1.126-1.626c0.257-0.554,0.385-1.098,0.385-1.631 c0-0.577-0.138-1.094-0.413-1.55c-0.275-0.456-0.649-0.811-1.124-1.063c-0.475-0.253-0.991-0.377-1.551-0.377 c-1.182,0-2.11,0.518-2.79,1.556c-0.09,0.135-0.241,0.505-0.453,1.109c-0.213,0.605-0.45,1.071-0.719,1.395 c-0.266,0.326-0.656,0.488-1.168,0.488c-0.453,0-0.827-0.149-1.126-0.447c-0.297-0.298-0.444-0.702-0.444-1.218 c0-0.623,0.139-1.273,0.419-1.95c0.278-0.677,0.696-1.291,1.253-1.841c0.552-0.551,1.258-0.995,2.108-1.334 c0.857-0.338,1.854-0.508,3.001-0.508c1.38,0,2.561,0.217,3.533,0.65c0.632,0.29,1.189,0.687,1.666,1.192 c0.479,0.506,0.854,1.091,1.118,1.753c0.267,0.664,0.4,1.353,0.4,2.066c0,1.119-0.276,2.137-0.833,3.052 c-0.556,0.917-1.12,1.634-1.7,2.155c-0.578,0.518-1.547,1.333-2.905,2.443c-1.356,1.112-2.289,1.974-2.795,2.587 c-0.218,0.243-0.438,0.537-0.662,0.88h7.067c0.704,0,1.24,0.144,1.609,0.433c0.372,0.29,0.556,0.682,0.556,1.179 C32.285,103.872,32.138,104.245,31.845,104.553z M63.507,72.418c-0.334-0.371-0.5-0.917-0.5-1.638V58.457 c-2.295,1.76-3.838,2.64-4.631,2.64c-0.382,0-0.717-0.15-1.01-0.454c-0.294-0.302-0.439-0.651-0.439-1.049 c0-0.46,0.143-0.798,0.434-1.016c0.288-0.215,0.796-0.495,1.528-0.839c1.094-0.515,1.966-1.055,2.62-1.624 c0.653-0.569,1.235-1.205,1.742-1.91c0.506-0.705,0.832-1.138,0.986-1.299c0.153-0.163,0.44-0.245,0.866-0.245 c0.479,0,0.863,0.186,1.152,0.556c0.287,0.371,0.433,0.881,0.433,1.531v15.504c0,1.814-0.617,2.721-1.854,2.721 C64.283,72.973,63.84,72.787,63.507,72.418z M112.372,108.481c-0.33,0.768-0.817,1.451-1.456,2.052 c-0.642,0.6-1.4,1.069-2.283,1.408c-0.88,0.338-1.854,0.508-2.917,0.508c-1.082,0-2.056-0.193-2.91-0.582 c-0.858-0.389-1.565-0.874-2.12-1.457c-0.556-0.582-0.976-1.183-1.26-1.807c-0.286-0.622-0.425-1.137-0.425-1.543 c0-0.523,0.168-0.946,0.505-1.267c0.339-0.32,0.76-0.48,1.266-0.48c0.256,0,0.499,0.075,0.733,0.224 c0.235,0.149,0.389,0.328,0.458,0.535c0.471,1.253,0.975,2.186,1.511,2.795c0.54,0.61,1.294,0.914,2.269,0.914 c0.561,0,1.101-0.138,1.62-0.412c0.517-0.276,0.947-0.683,1.286-1.226c0.338-0.541,0.506-1.169,0.506-1.883 c0-1.056-0.289-1.884-0.866-2.484c-0.576-0.6-1.382-0.9-2.41-0.9c-0.18,0-0.459,0.017-0.839,0.053 c-0.379,0.037-0.624,0.055-0.732,0.055c-0.495,0-0.88-0.125-1.149-0.374c-0.271-0.248-0.407-0.593-0.407-1.034 c0-0.435,0.164-0.785,0.487-1.05c0.326-0.268,0.809-0.4,1.449-0.4h0.556c0.83,0,1.547-0.245,2.146-0.73 c0.599-0.489,0.899-1.187,0.899-2.1c0-0.695-0.237-1.293-0.716-1.793c-0.48-0.502-1.124-0.752-1.938-0.752 c-0.551,0-1.004,0.077-1.361,0.23c-0.355,0.154-0.638,0.356-0.847,0.61c-0.207,0.253-0.403,0.577-0.589,0.974 c-0.184,0.396-0.354,0.772-0.508,1.124c-0.09,0.189-0.251,0.338-0.488,0.447c-0.233,0.108-0.505,0.162-0.812,0.162 c-0.359,0-0.692-0.146-0.995-0.44c-0.301-0.293-0.452-0.684-0.452-1.171c0-0.468,0.143-0.963,0.425-1.482 c0.284-0.52,0.702-1.013,1.247-1.483c0.548-0.469,1.228-0.846,2.037-1.131c0.814-0.283,1.72-0.427,2.724-0.427 c0.874,0,1.674,0.12,2.396,0.36c0.723,0.239,1.35,0.584,1.881,1.036c0.534,0.45,0.935,0.974,1.206,1.569 c0.271,0.597,0.408,1.237,0.408,1.923c0,0.904-0.199,1.677-0.59,2.322c-0.393,0.646-0.956,1.276-1.687,1.89 c0.705,0.379,1.298,0.813,1.782,1.301c0.481,0.488,0.845,1.026,1.088,1.617c0.245,0.591,0.367,1.23,0.367,1.916 C112.866,106.92,112.7,107.714,112.372,108.481z"></path>
    <path d="M54.073,23.862c0.244,3.8,2.378,7.06,5.444,8.764c-0.607,0.417-0.963,0.916-0.963,1.452c0,0.732,0.658,1.395,1.724,1.875 l0.837,4.187c-2.213,0.58-3.748,1.788-3.873,3.501h-0.017c0,0.108,0,0.212,0,0.212c0,0.001,0,0.002,0,0.004 c0,0.002,0,0.004,0,0.006c0,0.035,0,0.083,0,0.132h0.017c0.088,0.963,1.029,1.771,2.189,1.771h9.93 c1.165,0,2.108-0.718,2.189-1.771h0.016c0-0.048,0-0.097,0-0.132c0-0.002,0-0.004,0-0.006c0-0.001,0-0.002,0-0.004 c0,0,0-0.104,0-0.212h-0.018c-0.121-1.681-1.599-2.877-3.745-3.47l0.845-4.218c1.065-0.48,1.725-1.143,1.725-1.875 c0-0.553-0.378-1.067-1.021-1.492c3.023-1.713,5.123-4.949,5.366-8.713c1.197-0.185,2.607-1.065,5.009-3.536 C84.011,15.93,83.413,12,83.413,12c0-1.216-0.733-2.201-1.633-2.201l-7.509,1.627c-0.562-0.908-1.558-1.518-2.705-1.518H57.226 c-1.143,0-2.138,0.606-2.699,1.511l-7.474-1.62c-0.899,0-1.631,0.985-1.631,2.201c0,0-0.601,3.931,3.684,8.336 C51.479,22.779,52.886,23.664,54.073,23.862z M80.281,13.527c0,0,0.501,3.062-2.162,5.802c-1.665,1.713-2.561,2.192-3.365,2.218 v-7.771l4.512-1.617C79.825,12.159,80.281,12.771,80.281,13.527z M59.292,14.908c0-0.261,0.216-0.475,0.479-0.475h9.196 c0.266,0,0.479,0.214,0.479,0.475v4.375c0,0.265-0.213,0.478-0.479,0.478h-9.196c-0.263,0-0.479-0.213-0.479-0.478V14.908z M48.555,13.527c0-0.756,0.453-1.369,1.015-1.369l4.469,1.603v7.783c-0.79-0.04-1.688-0.529-3.322-2.215 C48.051,16.59,48.555,13.527,48.555,13.527z"></path>
    <path d="M61.165,17.629h6.217c0.21,0,0.38-0.326,0.38-0.728c0-0.401-0.17-0.727-0.38-0.727h-6.217c-0.21,0-0.38,0.326-0.38,0.727 C60.785,17.303,60.955,17.629,61.165,17.629z"></path>
  </symbol>
  <symbol id="third" viewBox="0 0 128 128">
    <path class="st0" d="M119.869,42.932c-1.042-4.11-8.939-4.724-13.555-4.724c-2.562,0-4.947,0.218-6.379,0.583L31.717,56.138 l-11.091-9.844c-0.372-0.329-0.879-0.453-1.366-0.332l-10.107,2.57c-0.455,0.116-0.831,0.439-1.013,0.873 c-0.183,0.434-0.15,0.928,0.086,1.335c0.273,0.47,0.76,1.694,1.323,3.11c2.76,6.941,7.896,19.861,16.198,19.861h0.002 c0.109,0,0.221-0.003,0.331-0.007c0.06-0.003,0.119-0.009,0.179-0.019l22.998-3.767l-2.412,24.087 c-0.05,0.49,0.146,0.973,0.521,1.292c0.274,0.233,0.619,0.357,0.972,0.357c0.129,0,0.259-0.017,0.387-0.051 c2.525-0.673,4.064-1.095,5.61-1.519c1.521-0.417,3.048-0.836,5.532-1.498c0.254-0.067,0.485-0.201,0.672-0.387 c11.877-11.83,19.79-21.623,26.342-32.617l17.455-3.493c2.332-0.594,6.444-2.647,9.565-4.776 C118.482,48.188,120.49,45.366,119.869,42.932z"></path>
    <path class="st0" d="M47.342,47.411c0.263,0.505,0.781,0.808,1.331,0.808c0.122,0,0.247-0.015,0.37-0.046l31.812-8.092 c0.679-0.173,1.148-0.793,1.129-1.494c-0.019-0.701-0.52-1.295-1.207-1.431l-24.104-4.781c-0.227-0.045-0.46-0.038-0.681,0.022 l-12.637,3.395c-0.439,0.118-0.802,0.429-0.984,0.845s-0.168,0.893,0.042,1.296L47.342,47.411z"></path>
  </symbol>
  <symbol id="fourth" viewBox="0 0 128 128">
    <path class="st0" d="M103.116,54.877c-1.432-5.23-4.036-11.199-7.291-16.659c-5.96-10.001-8.771-10.001-9.829-10.001 c-0.251-0.002-1.38-0.08-2.472-0.155c-4.072-0.283-11.652-0.809-19.407-0.809c-7.977,0-16.045,0.557-19.923,0.824 c-1.144,0.079-1.915,0.136-2.19,0.14c-0.996,0-3.641,0-9.683,9.983c-3.352,5.538-6.008,11.511-7.438,16.676 c-9.714,3.707-8.33,19.328-8.127,21.21c0.183,1.61,1.308,2.891,2.784,3.352c-0.269,0.397-0.426,0.877-0.426,1.392v6.389 c0,1.374,1.117,2.491,2.491,2.491h2.448v4.797c0,3.442,2.801,6.242,6.243,6.242h3.158c3.441,0,6.241-2.8,6.241-6.242v-4.797h51.339 v4.797c0,3.442,2.8,6.242,6.242,6.242h3.158c3.441,0,6.241-2.8,6.241-6.242v-4.798c1.35-0.026,2.439-1.134,2.439-2.49v-6.389 c0-0.54-0.177-1.037-0.47-1.445c1.387-0.509,2.423-1.76,2.595-3.311C111.445,74.203,112.827,58.587,103.116,54.877z M64.984,32.491 c0.581-0.005,1.407-0.011,2.388-0.011c13.541,0,15.173,1.163,15.709,1.545c2.577,1.843,8.289,18.019,8.344,18.18 c0.18,0.56,0.087,1.152-0.241,1.608c-0.331,0.462-0.871,0.739-1.442,0.739H39.4c-0.553,0-1.082-0.262-1.416-0.701 c-0.341-0.455-0.447-1.041-0.29-1.576c1.487-5.129,5.345-17.207,9.015-18.483c3.398-1.183,15.951-1.282,17.371-1.289v0.03 C64.385,32.497,64.699,32.494,64.984,32.491z M33.876,61.584c3.257,0,5.907,2.649,5.907,5.906s-2.65,5.906-5.907,5.906 s-5.907-2.649-5.907-5.906S30.619,61.584,33.876,61.584z M104.273,76.633c0,0.634,0.199,1.22,0.534,1.704H23.192 c0.335-0.484,0.534-1.07,0.534-1.704H104.273z M100.029,67.49c0,3.257-2.65,5.906-5.907,5.906s-5.906-2.649-5.906-5.906 s2.649-5.906,5.906-5.906S100.029,64.233,100.029,67.49z"></path>
  </symbol>
</svg>