<svg class="svgicon" id="svg80" preserveAspectRatio="xMidYMid meet" xmlns="http://www.w3.org/2000/svg" viewBox="0 0 128 128"><rect x="0" y="0" width="128" height="128" style="fill: transparent" rx="50%" ry="50%"></rect><g ><path d="M117.65,84.868H88.562v-33.95c0-1.803-1.463-3.266-3.265-3.266H44.266c-1.804,0-3.265,1.462-3.265,3.266v23.071 c-0.305-0.094-0.622-0.159-0.956-0.159H10.35c-1.803,0-3.266,1.462-3.266,3.266v37.841c0,1.803,1.463,3.265,3.266,3.265h29.695 c0.334,0,0.651-0.065,0.956-0.159v0.159h28.033h19.527h29.089c1.801,0,3.266-1.461,3.266-3.265V88.132 C120.916,86.33,119.451,84.868,117.65,84.868z M31.845,104.553c-0.289,0.307-0.737,0.459-1.334,0.459h-9.965 c-0.677,0-1.206-0.188-1.583-0.562c-0.381-0.375-0.57-0.813-0.57-1.319c0-0.326,0.122-0.756,0.365-1.293 c0.243-0.538,0.51-0.96,0.8-1.266c1.2-1.246,2.283-2.314,3.248-3.203c0.969-0.889,1.658-1.473,2.071-1.754 c0.742-0.522,1.359-1.05,1.85-1.577c0.494-0.528,0.867-1.07,1.126-1.626c0.257-0.554,0.385-1.098,0.385-1.631 c0-0.577-0.138-1.094-0.413-1.55c-0.275-0.456-0.649-0.811-1.124-1.063c-0.475-0.253-0.991-0.377-1.551-0.377 c-1.182,0-2.11,0.518-2.79,1.556c-0.09,0.135-0.241,0.505-0.453,1.109c-0.213,0.605-0.45,1.071-0.719,1.395 c-0.266,0.326-0.656,0.488-1.168,0.488c-0.453,0-0.827-0.149-1.126-0.447c-0.297-0.298-0.444-0.702-0.444-1.218 c0-0.623,0.139-1.273,0.419-1.95c0.278-0.677,0.696-1.291,1.253-1.841c0.552-0.551,1.258-0.995,2.108-1.334 c0.857-0.338,1.854-0.508,3.001-0.508c1.38,0,2.561,0.217,3.533,0.65c0.632,0.29,1.189,0.687,1.666,1.192 c0.479,0.506,0.854,1.091,1.118,1.753c0.267,0.664,0.4,1.353,0.4,2.066c0,1.119-0.276,2.137-0.833,3.052 c-0.556,0.917-1.12,1.634-1.7,2.155c-0.578,0.518-1.547,1.333-2.905,2.443c-1.356,1.112-2.289,1.974-2.795,2.587 c-0.218,0.243-0.438,0.537-0.662,0.88h7.067c0.704,0,1.24,0.144,1.609,0.433c0.372,0.29,0.556,0.682,0.556,1.179 C32.285,103.872,32.138,104.245,31.845,104.553z M63.507,72.418c-0.334-0.371-0.5-0.917-0.5-1.638V58.457 c-2.295,1.76-3.838,2.64-4.631,2.64c-0.382,0-0.717-0.15-1.01-0.454c-0.294-0.302-0.439-0.651-0.439-1.049 c0-0.46,0.143-0.798,0.434-1.016c0.288-0.215,0.796-0.495,1.528-0.839c1.094-0.515,1.966-1.055,2.62-1.624 c0.653-0.569,1.235-1.205,1.742-1.91c0.506-0.705,0.832-1.138,0.986-1.299c0.153-0.163,0.44-0.245,0.866-0.245 c0.479,0,0.863,0.186,1.152,0.556c0.287,0.371,0.433,0.881,0.433,1.531v15.504c0,1.814-0.617,2.721-1.854,2.721 C64.283,72.973,63.84,72.787,63.507,72.418z M112.372,108.481c-0.33,0.768-0.817,1.451-1.456,2.052 c-0.642,0.6-1.4,1.069-2.283,1.408c-0.88,0.338-1.854,0.508-2.917,0.508c-1.082,0-2.056-0.193-2.91-0.582 c-0.858-0.389-1.565-0.874-2.12-1.457c-0.556-0.582-0.976-1.183-1.26-1.807c-0.286-0.622-0.425-1.137-0.425-1.543 c0-0.523,0.168-0.946,0.505-1.267c0.339-0.32,0.76-0.48,1.266-0.48c0.256,0,0.499,0.075,0.733,0.224 c0.235,0.149,0.389,0.328,0.458,0.535c0.471,1.253,0.975,2.186,1.511,2.795c0.54,0.61,1.294,0.914,2.269,0.914 c0.561,0,1.101-0.138,1.62-0.412c0.517-0.276,0.947-0.683,1.286-1.226c0.338-0.541,0.506-1.169,0.506-1.883 c0-1.056-0.289-1.884-0.866-2.484c-0.576-0.6-1.382-0.9-2.41-0.9c-0.18,0-0.459,0.017-0.839,0.053 c-0.379,0.037-0.624,0.055-0.732,0.055c-0.495,0-0.88-0.125-1.149-0.374c-0.271-0.248-0.407-0.593-0.407-1.034 c0-0.435,0.164-0.785,0.487-1.05c0.326-0.268,0.809-0.4,1.449-0.4h0.556c0.83,0,1.547-0.245,2.146-0.73 c0.599-0.489,0.899-1.187,0.899-2.1c0-0.695-0.237-1.293-0.716-1.793c-0.48-0.502-1.124-0.752-1.938-0.752 c-0.551,0-1.004,0.077-1.361,0.23c-0.355,0.154-0.638,0.356-0.847,0.61c-0.207,0.253-0.403,0.577-0.589,0.974 c-0.184,0.396-0.354,0.772-0.508,1.124c-0.09,0.189-0.251,0.338-0.488,0.447c-0.233,0.108-0.505,0.162-0.812,0.162 c-0.359,0-0.692-0.146-0.995-0.44c-0.301-0.293-0.452-0.684-0.452-1.171c0-0.468,0.143-0.963,0.425-1.482 c0.284-0.52,0.702-1.013,1.247-1.483c0.548-0.469,1.228-0.846,2.037-1.131c0.814-0.283,1.72-0.427,2.724-0.427 c0.874,0,1.674,0.12,2.396,0.36c0.723,0.239,1.35,0.584,1.881,1.036c0.534,0.45,0.935,0.974,1.206,1.569 c0.271,0.597,0.408,1.237,0.408,1.923c0,0.904-0.199,1.677-0.59,2.322c-0.393,0.646-0.956,1.276-1.687,1.89 c0.705,0.379,1.298,0.813,1.782,1.301c0.481,0.488,0.845,1.026,1.088,1.617c0.245,0.591,0.367,1.23,0.367,1.916 C112.866,106.92,112.7,107.714,112.372,108.481z"></path><path d="M54.073,23.862c0.244,3.8,2.378,7.06,5.444,8.764c-0.607,0.417-0.963,0.916-0.963,1.452c0,0.732,0.658,1.395,1.724,1.875 l0.837,4.187c-2.213,0.58-3.748,1.788-3.873,3.501h-0.017c0,0.108,0,0.212,0,0.212c0,0.001,0,0.002,0,0.004 c0,0.002,0,0.004,0,0.006c0,0.035,0,0.083,0,0.132h0.017c0.088,0.963,1.029,1.771,2.189,1.771h9.93 c1.165,0,2.108-0.718,2.189-1.771h0.016c0-0.048,0-0.097,0-0.132c0-0.002,0-0.004,0-0.006c0-0.001,0-0.002,0-0.004 c0,0,0-0.104,0-0.212h-0.018c-0.121-1.681-1.599-2.877-3.745-3.47l0.845-4.218c1.065-0.48,1.725-1.143,1.725-1.875 c0-0.553-0.378-1.067-1.021-1.492c3.023-1.713,5.123-4.949,5.366-8.713c1.197-0.185,2.607-1.065,5.009-3.536 C84.011,15.93,83.413,12,83.413,12c0-1.216-0.733-2.201-1.633-2.201l-7.509,1.627c-0.562-0.908-1.558-1.518-2.705-1.518H57.226 c-1.143,0-2.138,0.606-2.699,1.511l-7.474-1.62c-0.899,0-1.631,0.985-1.631,2.201c0,0-0.601,3.931,3.684,8.336 C51.479,22.779,52.886,23.664,54.073,23.862z M80.281,13.527c0,0,0.501,3.062-2.162,5.802c-1.665,1.713-2.561,2.192-3.365,2.218 v-7.771l4.512-1.617C79.825,12.159,80.281,12.771,80.281,13.527z M59.292,14.908c0-0.261,0.216-0.475,0.479-0.475h9.196 c0.266,0,0.479,0.214,0.479,0.475v4.375c0,0.265-0.213,0.478-0.479,0.478h-9.196c-0.263,0-0.479-0.213-0.479-0.478V14.908z M48.555,13.527c0-0.756,0.453-1.369,1.015-1.369l4.469,1.603v7.783c-0.79-0.04-1.688-0.529-3.322-2.215 C48.051,16.59,48.555,13.527,48.555,13.527z"></path><path d="M61.165,17.629h6.217c0.21,0,0.38-0.326,0.38-0.728c0-0.401-0.17-0.727-0.38-0.727h-6.217c-0.21,0-0.38,0.326-0.38,0.727 C60.785,17.303,60.955,17.629,61.165,17.629z"></path></g></svg>