<svg class="svgicon" id="svg81" preserveAspectRatio="xMidYMid meet" xmlns="http://www.w3.org/2000/svg" viewBox="0 0 128 128"><rect x="0" y="0" width="128" height="128" style="fill: transparent" rx="50%" ry="50%"></rect><g ><path class="st0" d="M119.869,42.932c-1.042-4.11-8.939-4.724-13.555-4.724c-2.562,0-4.947,0.218-6.379,0.583L31.717,56.138 l-11.091-9.844c-0.372-0.329-0.879-0.453-1.366-0.332l-10.107,2.57c-0.455,0.116-0.831,0.439-1.013,0.873 c-0.183,0.434-0.15,0.928,0.086,1.335c0.273,0.47,0.76,1.694,1.323,3.11c2.76,6.941,7.896,19.861,16.198,19.861h0.002 c0.109,0,0.221-0.003,0.331-0.007c0.06-0.003,0.119-0.009,0.179-0.019l22.998-3.767l-2.412,24.087 c-0.05,0.49,0.146,0.973,0.521,1.292c0.274,0.233,0.619,0.357,0.972,0.357c0.129,0,0.259-0.017,0.387-0.051 c2.525-0.673,4.064-1.095,5.61-1.519c1.521-0.417,3.048-0.836,5.532-1.498c0.254-0.067,0.485-0.201,0.672-0.387 c11.877-11.83,19.79-21.623,26.342-32.617l17.455-3.493c2.332-0.594,6.444-2.647,9.565-4.776 C118.482,48.188,120.49,45.366,119.869,42.932z"></path><path class="st0" d="M47.342,47.411c0.263,0.505,0.781,0.808,1.331,0.808c0.122,0,0.247-0.015,0.37-0.046l31.812-8.092 c0.679-0.173,1.148-0.793,1.129-1.494c-0.019-0.701-0.52-1.295-1.207-1.431l-24.104-4.781c-0.227-0.045-0.46-0.038-0.681,0.022 l-12.637,3.395c-0.439,0.118-0.802,0.429-0.984,0.845s-0.168,0.893,0.042,1.296L47.342,47.411z"></path></g></svg>