<?xml version="1.0" encoding="utf-8"?>
<svg version="1.1" id="Слой_1" xmlns="http://www.w3.org/2000/svg" xmlns:xlink="http://www.w3.org/1999/xlink" x="0px" y="0px"
	 viewBox="0 0 235 62" enable-background="new 0 0 235 62" xml:space="preserve">
<path fill="#c7d601" d="M157.6,31.3L139.2,62h-17.8l18.4-30.7L121,0h17.8L157.6,31.3z M68.2,0H50.4l18.8,31.3L50.8,62h17.8L87,31.3
	L68.2,0z M209.5,0h-17.8l18.8,31.3L192,62h17.8l18.4-30.7L209.5,0z M0,58.5l16.3-27.2L0,4.1V58.5z"/>
<path fill="#add000" d="M139.8,31.3L121.4,62h-17.8L122,31.3L103.2,0H121L139.8,31.3z M191.7,0h-17.8l18.8,31.3L174.2,62H192
	l18.4-30.7L191.7,0z M50.4,0H32.6l18.8,31.3L33,62h17.8l18.4-30.7L50.4,0z"/>
<path fill="#93c702" d="M226.7,0h8.3v13.8L226.7,0z M103.2,0H85.4l18.8,31.3L85.8,62h17.8L122,31.3L103.2,0z M32.6,0H14.8l18.8,31.3
	L15.2,62H33l18.4-30.7L32.6,0z M235,48.8L227.1,62h7.9V48.8z M173.9,0h-17.8l18.8,31.3L156.4,62h17.8l18.4-30.7L173.9,0z"/>
<path fill="#6ac359" d="M68,62l18.4-30.7L67.6,0h17.8l18.8,31.3L85.8,62H68z M14.8,0H0v5l15.8,26.3L0,57.6V62h15.2l18.4-30.7L14.8,0
	z M156.1,0h-17.8l18.8,31.3L138.7,62h17.8l18.4-30.7L156.1,0z M235,13.8L226.7,0h-17.8l18.8,31.3L209.3,62h17.8l7.9-13.2V13.8z"/>
</svg>
