<svg width="140pt" height="139pt" viewBox="0 0 140 139" xmlns="http://www.w3.org/2000/svg"><path d="M66.18 1.28c3.13-.58 6.72-.86 9.54.92 3.7 2.21 6.15 5.92 9.54 8.53 6 4.98 14.02 6.99 21.71 6.6 4.43-.19 9.63.3 12.55 4.09 3.07 3.81 2.64 8.95 2.68 13.53-.26 8.61 3.6 17.11 9.9 22.92 3.4 3.25 7.26 7.06 7.07 12.15-.42 4.89-4.15 8.43-7.52 11.59-6.27 6.01-9.89 14.69-9.47 23.4.18 5.05.07 11.3-4.64 14.42-4.2 3.18-9.64 1.99-14.51 2.27-7.38.13-14.58 3.31-19.86 8.43-2.92 2.69-5.39 6.23-9.26 7.61-2.59.38-5.26.37-7.86 0-3.36-1.27-5.67-4.2-8.19-6.62-5.45-5.61-13.03-9.37-20.93-9.4-5.23-.23-11.35.95-15.49-3.11-4.41-3.95-3.49-10.35-3.62-15.65-.13-8.26-3.91-16.28-9.98-21.85C4.5 77.88.57 74.05 1 68.98c.26-5.15 4.5-8.69 7.89-12.07 5.75-5.69 9.13-13.81 8.95-21.92.11-4.37-.47-9.22 2.19-13.01 2.61-3.81 7.61-4.95 11.98-4.64 8.24.56 16.91-1.53 23.26-7 3.67-2.96 6.35-7.33 10.91-9.06z"/></svg>