<svg xmlns="http://www.w3.org/2000/svg" xmlns:xlink="http://www.w3.org/1999/xlink" version="1.1" x="0px" y="0px" viewBox="0 0 100 125" enable-background="new 0 0 100 100" style="fill: rgb(255,255,255);" xml:space="preserve"><path d="M38.199,13.833h-4.145c-2.375,0-5.796,0.508-7.628,1.132l-3.168,1.08c-0.522,0.178-0.802,0.746-0.624,1.269  c0.142,0.416,0.53,0.678,0.946,0.678c0.107,0,0.216-0.018,0.323-0.054l3.168-1.079c1.632-0.556,4.829-1.026,6.983-1.026h4.145  c0.552,0,1-0.448,1-1S38.751,13.833,38.199,13.833z M85.045,27.965c0-0.266-0.105-0.52-0.293-0.708l-2.758-2.756  c-0.391-0.39-1.023-0.39-1.414,0l-2.051,2.049l-2.049-2.049c-0.188-0.188-0.44-0.293-0.707-0.293s-0.521,0.105-0.707,0.293  l-2.756,2.756c-0.393,0.39-0.393,1.023,0,1.414l2.049,2.051l-2.049,2.049c-0.188,0.188-0.293,0.442-0.293,0.707  s0.104,0.52,0.293,0.707l2.756,2.756c0.377,0.375,1.041,0.374,1.414,0l2.049-2.049l2.051,2.049c0.195,0.195,0.451,0.293,0.707,0.293  s0.512-0.098,0.707-0.292l2.758-2.756c0.188-0.188,0.293-0.442,0.293-0.708s-0.105-0.52-0.293-0.708l-2.051-2.049l2.051-2.051  C84.939,28.485,85.045,28.23,85.045,27.965z M80.58,31.431l2.05,2.049l-1.343,1.342l-2.051-2.049  c-0.188-0.188-0.441-0.293-0.707-0.293s-0.521,0.105-0.707,0.293l-2.049,2.049l-1.342-1.342l2.049-2.049  c0.392-0.39,0.392-1.023,0-1.414l-2.049-2.051l1.342-1.343l2.049,2.049c0.189,0.188,0.441,0.293,0.707,0.293  c0.267,0,0.521-0.105,0.707-0.293l2.051-2.049l1.344,1.343l-2.051,2.051c-0.188,0.188-0.293,0.442-0.293,0.707  S80.393,31.244,80.58,31.431z M96.896,13.602c-3.938-4.519-10.557-5.495-15.625-2.796l-48.758-0.001  c-4.457,0-10.998,1.82-14.581,4.057l-6.253,3.905c-0.688,0.43-0.583,1.498,0.177,1.784l7.669,2.889  c2.76,1.041,7.407,1.887,10.358,1.887l36.092-0.002L32.186,59.114l-5.669-5.669c-0.77-0.77-2.022-0.771-2.792,0l-1.467,1.467  c-0.767,0.771-0.766,2.023,0.001,2.791l0.736,0.736c-1.999,1.057-5.122,0.231-7.477-2.123c-0.982-0.98-1.461-2.627-2.015-4.531  c-0.989-3.397-2.219-7.625-7.112-10.31C6,41.263,5.516,41.331,5.203,41.645l-4.911,4.909c-0.328,0.328-0.388,0.838-0.144,1.233  l4.738,7.667c0.041,0.065,0.089,0.127,0.144,0.182l21.067,21.066c2.012,4.549,6.626,7.534,11.6,7.534c3.4,0,6.588-1.315,8.976-3.704  l20.716-20.716l-0.002,25.908c0,0.145,0.031,0.285,0.092,0.418l1.854,4.021c0.163,0.354,0.52,0.582,0.906,0.582h0.977  c0.385,0,0.73-0.22,0.898-0.563l1.947-4.019c0.066-0.138,0.103-0.285,0.103-0.437V53.045l22.133-22.132  C100.943,26.265,101.217,18.561,96.896,13.602z M29.884,23.326c-2.704,0-7.124-0.805-9.653-1.758l-5.777-2.176l4.538-2.834  c3.259-2.034,9.451-3.753,13.521-3.753l45.999,0.001c-0.056,0.053-0.115,0.098-0.171,0.153L67.977,23.324L29.884,23.326z   M25.089,72.864L6.528,54.305l-4.261-6.896l3.805-3.803c3.637,2.294,4.631,5.707,5.513,8.737c0.605,2.079,1.177,4.043,2.521,5.388  c3.485,3.485,8.474,4.17,11.12,1.522c0.188-0.188,0.294-0.444,0.293-0.711s-0.109-0.522-0.299-0.709l-1.545-1.51l1.429-1.464  l5.668,5.668L28.72,62.58C26.008,65.292,24.722,69.129,25.089,72.864z M30.178,79.161c-0.421-0.481-0.803-0.976-1.152-1.481  l2.643-2.645l2.548,2.55l-2.687,2.688C31.057,79.941,30.6,79.578,30.178,79.161C30.164,79.146,32.184,81.145,30.178,79.161z   M70.738,88.436l-1.35-2.931l0.002-27.688l2.771-2.771v30.452h0.001L70.738,88.436z M94.882,29.499L45.26,79.118  c-3.164,3.165-7.987,3.883-11.917,2.17l2.995-2.996c0.391-0.392,0.391-1.022,0-1.414l-3.962-3.964c-0.375-0.375-1.039-0.375-1.414,0  l-2.971,2.973c-0.616-1.318-0.974-2.742-0.974-4.332c0-2.822,1.12-5.563,3.118-7.561l49.622-49.622  c4.351-4.349,11.74-4.042,15.72,0.645C99.029,19.202,98.762,25.619,94.882,29.499z"/></svg>